<svg width="20" height="20" viewBox="0 0 20 20" fill="none" xmlns="http://www.w3.org/2000/svg">
<g clip-path="url(#clip0_76_124)">
<path d="M6.18668 17.5C6.50973 18.2428 7.0427 18.8751 7.72014 19.3193C8.39757 19.7634 9.18997 20 10 20C10.81 20 11.6024 19.7634 12.2799 19.3193C12.9573 18.8751 13.4903 18.2428 13.8133 17.5H6.18668Z" fill="#DE2B13" fill-opacity="0.8"/>
<path d="M18.66 10.4574L17.2133 5.68828C16.7501 4.02023 15.7428 2.55475 14.3516 1.52453C12.9603 0.494299 11.2647 -0.0416271 9.53409 0.00183988C7.80345 0.0453069 6.13693 0.665675 4.79913 1.76445C3.46134 2.86322 2.52894 4.37741 2.14999 6.06661L1.02666 10.6808C0.877354 11.2939 0.869265 11.9329 1.003 12.5496C1.13674 13.1664 1.40881 13.7446 1.79868 14.2408C2.18855 14.737 2.68603 15.1382 3.25359 15.4141C3.82115 15.6899 4.44395 15.8333 5.07499 15.8333H14.6725C15.3231 15.8333 15.9647 15.681 16.5458 15.3885C17.127 15.096 17.6316 14.6714 18.0192 14.1489C18.4068 13.6263 18.6666 13.0203 18.7779 12.3793C18.8892 11.7382 18.8488 11.0801 18.66 10.4574Z" fill="#DE2B13" fill-opacity="0.8"/>
</g>
<defs>
<clipPath id="clip0_76_124">
<rect width="20" height="20" fill="white"/>
</clipPath>
</defs>
</svg>
