<svg width="16" height="16" viewBox="0 0 16 16" fill="none" xmlns="http://www.w3.org/2000/svg">
<g clip-path="url(#clip0_841_7325)">
<path d="M10 13.3333H3.33333C2.4496 13.3323 1.60237 12.9807 0.97748 12.3559C0.352588 11.731 0.00105857 10.8837 0 10L0 3.33333C0.00105857 2.4496 0.352588 1.60237 0.97748 0.97748C1.60237 0.352588 2.4496 0.00105857 3.33333 0L10 0C10.8837 0.00105857 11.731 0.352588 12.3559 0.97748C12.9807 1.60237 13.3323 2.4496 13.3333 3.33333V10C13.3323 10.8837 12.9807 11.731 12.3559 12.3559C11.731 12.9807 10.8837 13.3323 10 13.3333ZM16 12.6667V4C16 3.82319 15.9298 3.65362 15.8047 3.5286C15.6797 3.40357 15.5101 3.33333 15.3333 3.33333C15.1565 3.33333 14.987 3.40357 14.8619 3.5286C14.7369 3.65362 14.6667 3.82319 14.6667 4V12.6667C14.6667 13.1971 14.456 13.7058 14.0809 14.0809C13.7058 14.456 13.1971 14.6667 12.6667 14.6667H4C3.82319 14.6667 3.65362 14.7369 3.5286 14.8619C3.40357 14.987 3.33333 15.1565 3.33333 15.3333C3.33333 15.5101 3.40357 15.6797 3.5286 15.8047C3.65362 15.9298 3.82319 16 4 16H12.6667C13.5504 15.9989 14.3976 15.6474 15.0225 15.0225C15.6474 14.3976 15.9989 13.5504 16 12.6667Z" fill="#ABABAB"/>
</g>
<defs>
<clipPath id="clip0_841_7325">
<rect width="16" height="16" fill="white"/>
</clipPath>
</defs>
</svg>
