<svg width="32" height="32" viewBox="0 0 32 32" fill="none" xmlns="http://www.w3.org/2000/svg">
<g clip-path="url(#clip0_765_250)">
<path d="M1.56267 25.492C0.562403 26.492 0.000302066 27.8483 0 29.2627L0 32H2.73733C4.15171 31.9997 5.50804 31.4376 6.508 30.4373L24.2987 12.6467L19.3533 7.70133L1.56267 25.492Z" fill="white"/>
<path d="M30.8601 1.14C30.5354 0.814981 30.1499 0.557142 29.7255 0.381223C29.3011 0.205305 28.8462 0.114758 28.3868 0.114758C27.9274 0.114758 27.4725 0.205305 27.0481 0.381223C26.6237 0.557142 26.2381 0.814981 25.9134 1.14L21.2388 5.816L26.1841 10.7613L30.8601 6.08667C31.1851 5.76199 31.443 5.37643 31.6189 4.95204C31.7948 4.52765 31.8853 4.07274 31.8853 3.61333C31.8853 3.15393 31.7948 2.69902 31.6189 2.27463C31.443 1.85024 31.1851 1.46468 30.8601 1.14Z" fill="white"/>
</g>
<defs>
<clipPath id="clip0_765_250">
<rect width="32" height="32" fill="white"/>
</clipPath>
</defs>
</svg>
