<svg width="16" height="20" viewBox="0 0 16 20" fill="none" xmlns="http://www.w3.org/2000/svg">
<path d="M11.3333 10H9.66667C9.20667 10 8.83333 9.62667 8.83333 9.16667C8.83333 8.70667 9.20667 8.33333 9.66667 8.33333H11.3333C11.7933 8.33333 12.1667 8.70667 12.1667 9.16667C12.1667 9.62667 11.7933 10 11.3333 10ZM12.1667 13.3333C12.1667 12.8733 11.7933 12.5 11.3333 12.5H8C7.54 12.5 7.16667 12.8733 7.16667 13.3333C7.16667 13.7933 7.54 14.1667 8 14.1667H11.3333C11.7933 14.1667 12.1667 13.7933 12.1667 13.3333ZM15.5 15.8333V5.83333C15.5 3.53583 13.6308 1.66667 11.3333 1.66667H11.1908C10.8467 0.696667 9.92 0 8.83333 0H7.16667C6.08 0 5.15333 0.696667 4.80917 1.66667H4.66667C2.36917 1.66667 0.5 3.53583 0.5 5.83333V15.8333C0.5 18.1308 2.36917 20 4.66667 20H11.3333C13.6308 20 15.5 18.1308 15.5 15.8333ZM5.5 3.33333C5.96 3.33333 6.33333 2.96 6.33333 2.5C6.33333 2.04 6.7075 1.66667 7.16667 1.66667H8.83333C9.2925 1.66667 9.66667 2.04083 9.66667 2.5C9.66667 2.95917 10.04 3.33333 10.5 3.33333H11.3333C12.7117 3.33333 13.8333 4.455 13.8333 5.83333V15.8333C13.8333 17.2117 12.7117 18.3333 11.3333 18.3333H4.66667C3.28833 18.3333 2.16667 17.2117 2.16667 15.8333V5.83333C2.16667 4.455 3.28833 3.33333 4.66667 3.33333H5.5ZM4.66667 12.5C4.20667 12.5 3.83333 12.8733 3.83333 13.3333C3.83333 13.7933 4.20667 14.1667 4.66667 14.1667C5.12667 14.1667 5.5 13.7933 5.5 13.3333C5.5 12.8733 5.12667 12.5 4.66667 12.5ZM6.195 9.6025L7.74667 8.09833C8.0775 7.7775 8.08583 7.25 7.765 6.92C7.44417 6.58917 6.91667 6.58167 6.58667 6.90167L5.22 8.22667L4.54417 7.58833C4.21 7.2725 3.6825 7.28667 3.36583 7.6225C3.05 7.9575 3.065 8.485 3.4 8.80083L4.24 9.59333C4.50167 9.85583 4.85083 10 5.22167 10C5.5925 10 5.94167 9.85583 6.19417 9.6025H6.195Z" fill="#2E2E2E"/>
</svg>
