<svg width="20" height="20" viewBox="0 0 20 20" fill="none" xmlns="http://www.w3.org/2000/svg">
<path d="M19.2661 0.734521C18.9673 0.43212 18.5956 0.211888 18.1868 0.0951024C17.778 -0.0216829 17.346 -0.0310735 16.9325 0.067838L3.59741 2.87624C2.82946 2.98155 2.10616 3.29915 1.50897 3.79327C0.911784 4.2874 0.464426 4.93842 0.217278 5.67303C-0.0298694 6.40764 -0.0669906 7.19665 0.110095 7.95121C0.287181 8.70578 0.67144 9.39592 1.2196 9.94392L2.65145 11.3748C2.72895 11.4523 2.79041 11.5442 2.83231 11.6455C2.87422 11.7467 2.89574 11.8552 2.89565 11.9648V14.6049C2.89749 14.9761 2.98295 15.3421 3.14569 15.6757L3.13902 15.6816L3.16069 15.7032C3.4049 16.1942 3.80376 16.5912 4.29584 16.8333L4.31751 16.8549L4.32334 16.8483C4.65702 17.011 5.02308 17.0964 5.39432 17.0983H8.03467C8.25557 17.0981 8.46751 17.1856 8.62391 17.3416L10.0549 18.7725C10.4388 19.1605 10.8956 19.4687 11.3991 19.6794C11.9026 19.8901 12.4428 19.9991 12.9887 20C13.4435 19.9994 13.8953 19.9251 14.3263 19.78C15.0543 19.541 15.701 19.1033 16.1934 18.5164C16.6859 17.9295 17.0045 17.2166 17.1134 16.4582L19.9262 3.09541C20.0303 2.67844 20.0242 2.24158 19.9084 1.82768C19.7927 1.41379 19.5714 1.03709 19.2661 0.734521ZM3.83161 10.1981L2.39892 8.76722C2.06531 8.44168 1.83149 8.02774 1.7249 7.57399C1.61832 7.12024 1.64339 6.6455 1.79717 6.20549C1.94627 5.75408 2.2219 5.35499 2.59128 5.05568C2.96065 4.75637 3.40823 4.56944 3.88078 4.51712L17.0834 1.73788L4.56087 14.2607V11.9648C4.56214 11.6367 4.49833 11.3117 4.37316 11.0084C4.24798 10.7052 4.06392 10.4298 3.83161 10.1981ZM15.4756 16.1732C15.4117 16.6335 15.2206 17.0669 14.924 17.4246C14.6274 17.7824 14.2369 18.0504 13.7964 18.1986C13.3559 18.3468 12.8828 18.3692 12.4302 18.2635C11.9776 18.1577 11.5635 17.928 11.2343 17.5999L9.80073 16.1666C9.56934 15.9339 9.29412 15.7495 8.99098 15.6239C8.68784 15.4983 8.3628 15.4341 8.03467 15.4349H5.73853L18.2627 2.91624L15.4756 16.1732Z" fill="black"/>
</svg>
