<svg width="20" height="20" viewBox="0 0 20 20" fill="none" xmlns="http://www.w3.org/2000/svg">
<g clip-path="url(#clip0_4_91)">
<path d="M6.18677 17.5C6.50982 18.2428 7.04279 18.8751 7.72023 19.3193C8.39766 19.7634 9.19006 20 10.0001 20C10.8101 20 11.6025 19.7634 12.28 19.3193C12.9574 18.8751 13.4904 18.2428 13.8134 17.5H6.18677Z" fill="black"/>
<path d="M18.6601 10.4581L17.2134 5.68889C16.7501 4.02084 15.7429 2.55536 14.3516 1.52514C12.9604 0.494909 11.2648 -0.0410168 9.53418 0.00245023C7.80354 0.0459172 6.13702 0.666286 4.79923 1.76506C3.46143 2.86383 2.52903 4.37802 2.15008 6.06722L1.02675 10.6814C0.877446 11.2945 0.869356 11.9335 1.00309 12.5503C1.13683 13.167 1.4089 13.7452 1.79877 14.2415C2.18864 14.7377 2.68612 15.1388 3.25368 15.4147C3.82124 15.6905 4.44404 15.8339 5.07508 15.8339H14.6726C15.3232 15.8339 15.9648 15.6816 16.5459 15.3891C17.1271 15.0966 17.6317 14.6721 18.0193 14.1495C18.4069 13.627 18.6667 13.0209 18.778 12.3799C18.8893 11.7388 18.8489 11.0807 18.6601 10.4581Z" fill="black"/>
</g>
<defs>
<clipPath id="clip0_4_91">
<rect width="20" height="20" fill="white"/>
</clipPath>
</defs>
</svg>
