<svg width="20" height="20" viewBox="0 0 20 20" fill="none" xmlns="http://www.w3.org/2000/svg">
<g clip-path="url(#clip0_2440_13463)">
<path d="M11.7679 9.99997L19.6342 2.13447C20.1225 1.64617 20.1225 0.854486 19.6342 0.366225C19.1459 -0.122075 18.3543 -0.122075 17.866 0.366225L10.0005 8.23254L2.13496 0.366225C1.64666 -0.122075 0.854975 -0.122075 0.366713 0.366225C-0.121548 0.854526 -0.121587 1.64621 0.366713 2.13447L8.23303 9.99997L0.366713 17.8655C-0.121587 18.3538 -0.121587 19.1455 0.366713 19.6338C0.855014 20.122 1.6467 20.1221 2.13496 19.6338L10.0005 11.7674L17.866 19.6338C18.3543 20.1221 19.1459 20.1221 19.6342 19.6338C20.1225 19.1455 20.1225 18.3538 19.6342 17.8655L11.7679 9.99997Z" fill="black"/>
</g>
<defs>
<clipPath id="clip0_2440_13463">
<rect width="20" height="20" fill="white"/>
</clipPath>
</defs>
</svg>
