<svg width="20" height="20" viewBox="0 0 20 20" fill="none" xmlns="http://www.w3.org/2000/svg">
<path d="M16.7392 6.70412C16.6458 6.60973 16.5347 6.53482 16.4124 6.48369C16.29 6.43257 16.1587 6.40625 16.0261 6.40625C15.8935 6.40625 15.7622 6.43257 15.6399 6.48369C15.5175 6.53482 15.4064 6.60973 15.313 6.70412L10.7131 11.3162C10.6197 11.4106 10.5086 11.4855 10.3862 11.5366C10.2639 11.5877 10.1326 11.614 10 11.614C9.86741 11.614 9.73614 11.5877 9.61375 11.5366C9.49136 11.4855 9.38028 11.4106 9.28691 11.3162L4.68699 6.70412C4.59362 6.60973 4.48254 6.53482 4.36015 6.48369C4.23776 6.43257 4.10648 6.40625 3.9739 6.40625C3.84131 6.40625 3.71004 6.43257 3.58765 6.48369C3.46526 6.53482 3.35418 6.60973 3.26081 6.70412C3.07375 6.89279 2.96875 7.14802 2.96875 7.41405C2.96875 7.68009 3.07375 7.93531 3.26081 8.12399L7.87078 12.7461C8.43573 13.3118 9.20154 13.6296 10 13.6296C10.7985 13.6296 11.5643 13.3118 12.1292 12.7461L16.7392 8.12399C16.9263 7.93531 17.0312 7.68009 17.0312 7.41405C17.0312 7.14802 16.9263 6.89279 16.7392 6.70412Z" fill="black"/>
</svg>
