<svg width="20" height="20" viewBox="0 0 20 20" fill="none" xmlns="http://www.w3.org/2000/svg">
<g clip-path="url(#clip0_2516_11315)">
<path d="M4.5834 5.83333C2.97507 5.83333 1.66673 4.525 1.66673 2.91667C1.66673 1.30833 2.97507 0 4.5834 0C6.19173 0 7.50007 1.30833 7.50007 2.91667C7.50007 4.525 6.19173 5.83333 4.5834 5.83333ZM12.0834 5.83333C10.4751 5.83333 9.16673 4.525 9.16673 2.91667C9.16673 1.30833 10.4751 0 12.0834 0C13.6917 0 15.0001 1.30833 15.0001 2.91667C15.0001 4.525 13.6917 5.83333 12.0834 5.83333ZM18.9134 15.945L18.1017 15.4767C18.2401 15.0625 18.3334 14.6275 18.3334 14.1667C18.3334 13.7058 18.2409 13.2708 18.1017 12.8567L18.9134 12.3883C19.3117 12.1583 19.4484 11.6483 19.2184 11.25C18.9876 10.8508 18.4792 10.7133 18.0801 10.945L17.2692 11.4133C16.6817 10.7517 15.8992 10.2675 15.0001 10.085V9.1675C15.0001 8.7075 14.6267 8.33417 14.1667 8.33417C13.7067 8.33417 13.3334 8.7075 13.3334 9.1675V10.085C12.4342 10.2683 11.6517 10.7525 11.0642 11.4133L10.2534 10.945C9.8534 10.7142 9.34507 10.8508 9.11507 11.25C8.88507 11.6492 9.02173 12.1583 9.42007 12.3883L10.2317 12.8567C10.0934 13.2708 10.0001 13.7058 10.0001 14.1667C10.0001 14.6275 10.0926 15.0625 10.2317 15.4767L9.42007 15.945C9.02173 16.175 8.88507 16.685 9.11507 17.0833C9.27007 17.3508 9.54924 17.5 9.83757 17.5C9.9784 17.5 10.1217 17.4642 10.2534 17.3883L11.0642 16.92C11.6517 17.5817 12.4342 18.0658 13.3334 18.2483V19.1658C13.3334 19.6258 13.7067 19.9992 14.1667 19.9992C14.6267 19.9992 15.0001 19.6258 15.0001 19.1658V18.2483C15.8992 18.065 16.6817 17.5808 17.2692 16.92L18.0801 17.3883C18.2117 17.4642 18.3551 17.5 18.4959 17.5C18.7842 17.5 19.0642 17.3508 19.2184 17.0833C19.4484 16.6842 19.3117 16.175 18.9134 15.945ZM14.1667 15.4167C13.4776 15.4167 12.9167 14.8558 12.9167 14.1667C12.9167 13.4775 13.4776 12.9167 14.1667 12.9167C14.8559 12.9167 15.4167 13.4775 15.4167 14.1667C15.4167 14.8558 14.8559 15.4167 14.1667 15.4167ZM10.5017 7.62667C9.96757 7.04083 9.20673 6.66667 8.35423 6.66667C6.7459 6.66667 5.43757 7.975 5.43757 9.58333C5.43757 10.6817 6.05507 11.6292 6.95507 12.1267C7.49923 10.1992 8.7909 8.5875 10.5017 7.62667ZM6.66673 14.1667C6.66673 13.9125 6.68007 13.6617 6.70507 13.4133C4.78757 13.7858 3.3334 15.475 3.3334 17.5C3.3334 17.96 3.70673 18.3333 4.16673 18.3333H7.93173C7.1334 17.1417 6.66673 15.7092 6.66673 14.1667ZM3.7709 9.58333C3.7709 8.4975 4.15257 7.5 4.7859 6.71417C2.20673 6.34083 -0.0140993 8.34583 6.7407e-05 10.8567C0.00256741 11.3075 0.387567 11.6667 0.838401 11.6667H4.29007C3.96007 11.0308 3.7709 10.3217 3.7709 9.58333Z" fill="black"/>
</g>
<defs>
<clipPath id="clip0_2516_11315">
<rect width="20" height="20" fill="white"/>
</clipPath>
</defs>
</svg>
