<svg width="20" height="20" viewBox="0 0 20 20" fill="none" xmlns="http://www.w3.org/2000/svg">
<g clip-path="url(#clip0_764_3204)">
<path d="M17.5 4.99935H4.16667C3.45083 4.99935 2.77333 4.68935 2.30417 4.16685C2.7625 3.65518 3.42833 3.33268 4.16667 3.33268H19.1667C19.6275 3.33268 20 2.95935 20 2.49935C20 2.03935 19.6275 1.66602 19.1667 1.66602H4.16667C1.86583 1.66602 0 3.53185 0 5.83268V14.166C0 16.4668 1.86583 18.3327 4.16667 18.3327H17.5C18.8808 18.3327 20 17.2135 20 15.8327V7.49935C20 6.11852 18.8808 4.99935 17.5 4.99935ZM18.3333 15.8327C18.3333 16.2919 17.96 16.666 17.5 16.666H4.16667C2.78833 16.666 1.66667 15.5443 1.66667 14.166V5.83102C2.37833 6.36352 3.25333 6.66602 4.16667 6.66602H17.5C17.96 6.66602 18.3333 7.04018 18.3333 7.49935V15.8327ZM16.6667 11.666C16.6667 12.126 16.2933 12.4993 15.8333 12.4993C15.3733 12.4993 15 12.126 15 11.666C15 11.206 15.3733 10.8327 15.8333 10.8327C16.2933 10.8327 16.6667 11.206 16.6667 11.666Z" fill="black"/>
</g>
<defs>
<clipPath id="clip0_764_3204">
<rect width="20" height="20" fill="white"/>
</clipPath>
</defs>
</svg>
