<svg width="20" height="20" viewBox="0 0 20 20" fill="none" xmlns="http://www.w3.org/2000/svg">
<g clip-path="url(#clip0_764_3207)">
<path d="M17.5 4.99935H4.16667C3.45083 4.99935 2.77333 4.68935 2.30417 4.16685C2.7625 3.65518 3.42833 3.33268 4.16667 3.33268H19.1667C20.2567 3.32768 20.2558 1.67018 19.1667 1.66602H4.16667C1.86583 1.66602 0 3.53185 0 5.83268V14.166C0 16.4668 1.86583 18.3327 4.16667 18.3327H17.5C18.8808 18.3327 20 17.2135 20 15.8327V7.49935C20 6.11852 18.8808 4.99935 17.5 4.99935ZM16.6667 12.4993C15.5767 12.4943 15.5767 10.8377 16.6667 10.8327C17.7567 10.8377 17.7567 12.4943 16.6667 12.4993Z" fill="black"/>
</g>
<defs>
<clipPath id="clip0_764_3207">
<rect width="20" height="20" fill="white"/>
</clipPath>
</defs>
</svg>
