<svg width="20" height="20" viewBox="0 0 20 20" fill="none" xmlns="http://www.w3.org/2000/svg">
<g clip-path="url(#clip0_1293_5275)">
<path d="M20 2.91602C20 3.60768 19.4417 4.16602 18.75 4.16602H1.25C0.558333 4.16602 0 3.60768 0 2.91602C0 2.22435 0.558333 1.66602 1.25 1.66602H18.75C19.4417 1.66602 20 2.22435 20 2.91602ZM12.0833 16.666H7.91667C7.225 16.666 6.66667 17.2243 6.66667 17.916C6.66667 18.6077 7.225 19.166 7.91667 19.166H12.0833C12.775 19.166 13.3333 18.6077 13.3333 17.916C13.3333 17.2243 12.775 16.666 12.0833 16.666ZM15.4167 9.16602H4.58333C3.89167 9.16602 3.33333 9.72435 3.33333 10.416C3.33333 11.1077 3.89167 11.666 4.58333 11.666H15.4167C16.1083 11.666 16.6667 11.1077 16.6667 10.416C16.6667 9.72435 16.1083 9.16602 15.4167 9.16602Z" fill="black"/>
</g>
<defs>
<clipPath id="clip0_1293_5275">
<rect width="20" height="20" fill="white"/>
</clipPath>
</defs>
</svg>
