<svg width="20" height="20" viewBox="0 0 20 20" fill="none" xmlns="http://www.w3.org/2000/svg">
<g clip-path="url(#clip0_4_60)">
<path d="M10 12.4941C8.6193 12.4941 7.5 13.6134 7.5 14.9941V19.9941H12.5V14.9941C12.5 13.6134 11.3807 12.4941 10 12.4941Z" fill="black"/>
<path d="M14.1667 14.9934V19.9934H17.5C18.8807 19.9934 20 18.8741 20 17.4934V9.89259C20.0002 9.45966 19.832 9.04364 19.5308 8.73259L12.4492 1.07673C11.1996 -0.275227 9.09074 -0.358234 7.73879 0.891297C7.67457 0.950672 7.6127 1.01251 7.55336 1.07673L0.48418 8.73009C0.173945 9.04243 -0.000117128 9.46485 5.9134e-08 9.90509V17.4934C5.9134e-08 18.8741 1.1193 19.9934 2.5 19.9934H5.83332V14.9934C5.84891 12.7211 7.68355 10.8654 9.89867 10.812C12.1879 10.7568 14.1492 12.644 14.1667 14.9934Z" fill="black"/>
<path d="M10 12.4941C8.6193 12.4941 7.5 13.6134 7.5 14.9941V19.9941H12.5V14.9941C12.5 13.6134 11.3807 12.4941 10 12.4941Z" fill="black"/>
</g>
<defs>
<clipPath id="clip0_4_60">
<rect width="20" height="20" fill="white"/>
</clipPath>
</defs>
</svg>
