<svg width="240" height="55" viewBox="0 0 240 55" fill="none" xmlns="http://www.w3.org/2000/svg">
<g id="pcube-text-logo" clip-path="url(#clip0_2557_3195)">
<g id="Group">
<g id="_&#235;&#160;&#136;&#236;&#157;&#180;&#236;&#150;&#180;_1">
<path id="Vector" d="M19.681 6.43689L0 17.8649V49.2861L9.84051 55V46.4291L19.681 52.1431L39.362 40.7151V17.8649L19.681 6.43689ZM29.5215 35.0011L19.681 40.7151L9.84051 35.0011V23.5731L19.681 17.8591L29.5215 23.5731V35.0011Z" fill="#CC1C1C"/>
<path id="Vector_2" d="M173.438 40.715V17.8648L153.757 6.43678L143.917 12.1508V4.79602L134.076 10.51V17.8648V40.7207L153.757 52.1487L173.438 40.7207V40.715ZM163.598 35.001L153.757 40.715L143.917 35.001V23.573L153.757 17.859L163.598 23.573V35.001Z" fill="#2B2929"/>
<path id="Vector_3" d="M225.453 4.23959V12.6672L218.186 16.8895V25.3343L232.727 16.8895V0L225.453 4.23959Z" fill="#FC5A51"/>
<path id="Vector_4" d="M232.727 25.3171V16.8896L240 12.6672V4.22241L225.459 12.6672V29.5567L232.727 25.3171Z" fill="#CC1C1C"/>
<g id="Vector_5" style="mix-blend-mode:multiply">
<path d="M29.5217 23.6018V35.0011L19.6812 40.7151V52.1431L39.3622 40.7151V17.8649L29.5217 23.6018Z" fill="#AE2F23"/>
</g>
<path id="Vector_6" d="M121.132 17.8649V35.0011L111.292 40.7151L101.451 35.0011V17.8649L91.6108 12.1509V40.7151L101.451 46.4291L111.292 52.1431L130.973 40.7151V12.1509L121.132 17.8649Z" fill="#2B2929"/>
<path id="Vector_7" d="M196.223 40.7151L186.382 35.0011V23.5731L196.223 29.2871L206.063 23.5731L215.904 17.8649L196.223 6.43689L176.542 17.8649V40.7151L186.382 46.4291L196.223 52.1431L215.904 40.7151L206.063 35.0011L196.223 40.7151Z" fill="#2B2929"/>
<path id="Vector_8" d="M9.86333 23.5616L19.681 17.8649L29.5215 23.5731L39.362 17.8591L19.681 6.43689L0 17.8649L9.86333 23.5616Z" fill="#FC5A51"/>
<path id="Vector_9" d="M68.8265 40.7151L58.986 35.0011V23.5731L59.0088 23.5616L68.8265 17.8649L78.667 23.5731L86.0602 19.2819L88.5075 17.8649L68.8265 6.43689L49.1455 17.8649V40.7151L58.986 46.4291L68.8265 52.1431L88.5075 40.7151L78.667 35.0011L68.8265 40.7151Z" fill="#2B2929"/>
<g id="Vector_10" style="mix-blend-mode:screen" opacity="0.25">
<path d="M196.223 6.43689L176.542 17.8649L196.223 29.2871L215.904 17.8649L196.223 6.43689Z" fill="#C0BFBF"/>
</g>
<g id="Vector_11" style="mix-blend-mode:multiply">
<path d="M196.223 40.7151V52.1431L215.904 40.7151L206.063 35.0011L196.223 40.7151Z" fill="#7E7D7E"/>
</g>
</g>
</g>
</g>
<defs>
<clipPath id="clip0_2557_3195">
<rect width="240" height="55" fill="white"/>
</clipPath>
</defs>
</svg>
