<svg width="20" height="20" viewBox="0 0 20 20" fill="none" xmlns="http://www.w3.org/2000/svg">
<g clip-path="url(#clip0_980_3679)">
<path d="M10.8837 9.08699L10.8841 1.22105C10.8841 0.732753 10.4883 0.33691 10 0.336929C9.5117 0.336929 9.11586 0.732772 9.11587 1.22105L9.11627 9.08699L1.25035 9.08658C0.762049 9.08658 0.366206 9.48242 0.366226 9.9707C0.366245 10.459 0.762069 10.8548 1.25035 10.8548L9.11627 10.8544L9.11587 18.7204C9.11587 19.2087 9.51172 19.6045 10 19.6045C10.4883 19.6045 10.8841 19.2086 10.8841 18.7204L10.8837 10.8544L18.7496 10.8548C19.2379 10.8548 19.6338 10.459 19.6338 9.97072C19.6338 9.48242 19.2379 9.08658 18.7496 9.0866L10.8837 9.08699Z" fill="black"/>
</g>
<defs>
<clipPath id="clip0_980_3679">
<rect width="20" height="20" fill="white"/>
</clipPath>
</defs>
</svg>
