<svg width="20" height="20" viewBox="0 0 20 20" fill="none" xmlns="http://www.w3.org/2000/svg">
<g clip-path="url(#clip0_764_3209)">
<path d="M17.4999 20.0007H13.3333V18.334H17.4999C17.7209 18.334 17.9329 18.2462 18.0892 18.0899C18.2455 17.9336 18.3333 17.7217 18.3333 17.5007V13.334H19.9999V17.5007C19.9999 18.1637 19.7365 18.7996 19.2677 19.2684C18.7988 19.7373 18.163 20.0007 17.4999 20.0007Z" fill="black"/>
<path d="M1.66667 6.66667H0V2.5C0 1.83696 0.263392 1.20107 0.732233 0.732233C1.20107 0.263392 1.83696 0 2.5 0L6.66667 0V1.66667H2.5C2.27899 1.66667 2.06702 1.75446 1.91074 1.91074C1.75446 2.06702 1.66667 2.27899 1.66667 2.5V6.66667Z" fill="black"/>
<path d="M6.66667 20.0007H2.5C1.83696 20.0007 1.20107 19.7373 0.732233 19.2684C0.263392 18.7996 0 18.1637 0 17.5007L0 13.334H1.66667V17.5007C1.66667 17.7217 1.75446 17.9336 1.91074 18.0899C2.06702 18.2462 2.27899 18.334 2.5 18.334H6.66667V20.0007Z" fill="black"/>
<path d="M19.9999 6.66667H18.3333V2.5C18.3333 2.27899 18.2455 2.06702 18.0892 1.91074C17.9329 1.75446 17.7209 1.66667 17.4999 1.66667H13.3333V0H17.4999C18.163 0 18.7988 0.263392 19.2677 0.732233C19.7365 1.20107 19.9999 1.83696 19.9999 2.5V6.66667Z" fill="black"/>
<rect x="2.5" y="9.16602" width="15" height="1.66667" rx="0.833333" fill="black"/>
</g>
<defs>
<clipPath id="clip0_764_3209">
<rect width="20" height="20" fill="white"/>
</clipPath>
</defs>
</svg>
