<svg width="20" height="20" viewBox="0 0 20 20" fill="none" xmlns="http://www.w3.org/2000/svg">
<g clip-path="url(#clip0_2440_13479)">
<path d="M19.7557 18.5768L14.7815 13.6027C16.137 11.9448 16.8035 9.82941 16.643 7.69396C16.4826 5.55852 15.5075 3.56644 13.9195 2.12976C12.3314 0.693089 10.252 -0.0782598 8.11119 -0.0247333C5.97039 0.0287933 3.93207 0.903099 2.41783 2.41734C0.903588 3.93158 0.0292815 5.96991 -0.024245 8.1107C-0.0777715 10.2515 0.693577 12.331 2.13025 13.919C3.56693 15.507 5.55901 16.4821 7.69445 16.6425C9.8299 16.803 11.9453 16.1365 13.6032 14.781L18.5773 19.7552C18.7345 19.907 18.945 19.991 19.1635 19.9891C19.382 19.9872 19.591 19.8995 19.7455 19.745C19.9 19.5905 19.9876 19.3815 19.9895 19.163C19.9914 18.9445 19.9075 18.734 19.7557 18.5768ZM8.33315 14.9993C7.01461 14.9993 5.72568 14.6083 4.62935 13.8758C3.53302 13.1433 2.67854 12.1021 2.17395 10.8839C1.66937 9.66571 1.53735 8.32527 1.79458 7.03206C2.05182 5.73885 2.68676 4.55097 3.61911 3.61862C4.55146 2.68627 5.73934 2.05133 7.03255 1.79409C8.32576 1.53686 9.6662 1.66888 10.8844 2.17347C12.1025 2.67805 13.1437 3.53253 13.8763 4.62886C14.6088 5.72519 14.9998 7.01412 14.9998 8.33266C14.9978 10.1002 14.2948 11.7947 13.045 13.0445C11.7952 14.2943 10.1007 14.9973 8.33315 14.9993Z" fill="black"/>
</g>
<defs>
<clipPath id="clip0_2440_13479">
<rect width="20" height="20" fill="white"/>
</clipPath>
</defs>
</svg>
