<svg width="20" height="20" viewBox="0 0 20 20" fill="none" xmlns="http://www.w3.org/2000/svg">
<g clip-path="url(#clip0_8_951)">
<path d="M17.4999 10C17.4997 9.54022 17.4579 9.0814 17.3749 8.62917L19.9108 7.16667L17.4108 2.83333L14.8741 4.29917C14.1737 3.69994 13.3689 3.23495 12.4999 2.9275V0H7.49994V2.9275C6.63099 3.23495 5.82616 3.69994 5.12578 4.29917L2.58911 2.83333L0.0891113 7.16667L2.62494 8.62917C2.45837 9.53546 2.45837 10.4645 2.62494 11.3708L0.0891113 12.8333L2.58911 17.1667L5.12578 15.7017C5.82622 16.3006 6.63105 16.7653 7.49994 17.0725V20H12.4999V17.0725C13.3689 16.7651 14.1737 16.3001 14.8741 15.7008L17.4108 17.1667L19.9108 12.8333L17.3749 11.3708C17.4579 10.9186 17.4997 10.4598 17.4999 10ZM12.4999 10C12.4999 10.4945 12.3533 10.9778 12.0786 11.3889C11.8039 11.8 11.4135 12.1205 10.9567 12.3097C10.4998 12.4989 9.99717 12.5484 9.51222 12.452C9.02727 12.3555 8.58181 12.1174 8.23218 11.7678C7.88255 11.4181 7.64444 10.9727 7.54798 10.4877C7.45152 10.0028 7.50103 9.50011 7.69025 9.04329C7.87946 8.58648 8.1999 8.19603 8.61102 7.92133C9.02214 7.64662 9.50549 7.5 9.99994 7.5C10.663 7.5 11.2989 7.76339 11.7677 8.23223C12.2366 8.70107 12.4999 9.33696 12.4999 10Z" fill="black"/>
</g>
<defs>
<clipPath id="clip0_8_951">
<rect width="20" height="20" fill="white"/>
</clipPath>
</defs>
</svg>
