<svg width="12" height="12" viewBox="0 0 12 12" fill="none" xmlns="http://www.w3.org/2000/svg">
<g id="Group">
<path id="Vector" d="M7.06068 6.00023L11.7805 1.28093C12.0735 0.987948 12.0735 0.512936 11.7805 0.219979C11.4875 -0.0730009 11.0125 -0.0730009 10.7195 0.219979L6.00023 4.93977L1.28093 0.219979C0.987948 -0.0730009 0.512936 -0.0730009 0.219979 0.219979C-0.0729775 0.512959 -0.0730009 0.987971 0.219979 1.28093L4.93977 6.00023L0.219979 10.7195C-0.0730009 11.0125 -0.0730009 11.4875 0.219979 11.7805C0.512959 12.0735 0.987971 12.0735 1.28093 11.7805L6.00023 7.06068L10.7195 11.7805C11.0125 12.0735 11.4875 12.0735 11.7805 11.7805C12.0735 11.4875 12.0735 11.0125 11.7805 10.7195L7.06068 6.00023Z" fill="#ABABAB"/>
</g>
</svg>
