<svg width="20" height="20" viewBox="0 0 20 20" fill="none" xmlns="http://www.w3.org/2000/svg">
<g clip-path="url(#clip0_765_1450)">
<path d="M17.5 5H4.16667C3.45083 5 2.77333 4.69 2.30417 4.1675C2.7625 3.65583 3.42833 3.33333 4.16667 3.33333H19.1667C19.6275 3.33333 20 2.96 20 2.5C20 2.04 19.6275 1.66666 19.1667 1.66666H4.16667C1.86583 1.66666 0 3.5325 0 5.83333V14.1667C0 16.4675 1.86583 18.3333 4.16667 18.3333H17.5C18.8808 18.3333 20 17.2142 20 15.8333V7.5C20 6.11916 18.8808 5 17.5 5ZM18.3333 15.8333C18.3333 16.2925 17.96 16.6667 17.5 16.6667H4.16667C2.78833 16.6667 1.66667 15.545 1.66667 14.1667V5.83166C2.37833 6.36416 3.25333 6.66666 4.16667 6.66666H17.5C17.96 6.66666 18.3333 7.04083 18.3333 7.5V15.8333ZM16.6667 11.6667C16.6667 12.1267 16.2933 12.5 15.8333 12.5C15.3733 12.5 15 12.1267 15 11.6667C15 11.2067 15.3733 10.8333 15.8333 10.8333C16.2933 10.8333 16.6667 11.2067 16.6667 11.6667Z" fill="#ABABAB"/>
</g>
<defs>
<clipPath id="clip0_765_1450">
<rect width="20" height="20" fill="white"/>
</clipPath>
</defs>
</svg>
