<svg width="20" height="20" viewBox="0 0 20 20" fill="none" xmlns="http://www.w3.org/2000/svg">
<g clip-path="url(#clip0_765_760)">
<path d="M17.5 4.99996H4.16667C3.45083 4.99996 2.77333 4.68996 2.30417 4.16746C2.7625 3.65579 3.42833 3.33329 4.16667 3.33329H19.1667C20.2567 3.32829 20.2558 1.67079 19.1667 1.66663H4.16667C1.86583 1.66663 0 3.53246 0 5.83329V14.1666C0 16.4675 1.86583 18.3333 4.16667 18.3333H17.5C18.8808 18.3333 20 17.2141 20 15.8333V7.49996C20 6.11913 18.8808 4.99996 17.5 4.99996ZM16.6667 12.5C15.5767 12.495 15.5767 10.8383 16.6667 10.8333C17.7567 10.8383 17.7567 12.495 16.6667 12.5Z" fill="#DE2B13" fill-opacity="0.8"/>
</g>
<defs>
<clipPath id="clip0_765_760">
<rect width="20" height="20" fill="white"/>
</clipPath>
</defs>
</svg>
