<svg width="10" height="10" viewBox="0 0 10 10" fill="none" xmlns="http://www.w3.org/2000/svg">
<g id="icon / filter" clip-path="url(#clip0_1478_5171)">
<path id="Vector" d="M10 1.45801C10 1.80384 9.72083 2.08301 9.375 2.08301H0.625C0.279167 2.08301 0 1.80384 0 1.45801C0 1.11217 0.279167 0.833008 0.625 0.833008H9.375C9.72083 0.833008 10 1.11217 10 1.45801ZM6.04167 8.33301H3.95833C3.6125 8.33301 3.33333 8.61217 3.33333 8.95801C3.33333 9.30384 3.6125 9.58301 3.95833 9.58301H6.04167C6.3875 9.58301 6.66667 9.30384 6.66667 8.95801C6.66667 8.61217 6.3875 8.33301 6.04167 8.33301ZM7.70833 4.58301H2.29167C1.94583 4.58301 1.66667 4.86217 1.66667 5.20801C1.66667 5.55384 1.94583 5.83301 2.29167 5.83301H7.70833C8.05417 5.83301 8.33333 5.55384 8.33333 5.20801C8.33333 4.86217 8.05417 4.58301 7.70833 4.58301Z" fill="#DE2B13" fill-opacity="0.8"/>
</g>
<defs>
<clipPath id="clip0_1478_5171">
<rect width="10" height="10" fill="white"/>
</clipPath>
</defs>
</svg>
