<svg width="20" height="20" viewBox="0 0 20 20" fill="none" xmlns="http://www.w3.org/2000/svg">
<path d="M14.1667 14.9938V19.9938H17.5C18.8807 19.9938 20 18.8745 20 17.4938V9.89295C20.0002 9.46002 19.832 9.04401 19.5308 8.73295L12.4492 1.07709C11.1996 -0.27486 9.09074 -0.357868 7.73879 0.891663C7.67457 0.951038 7.6127 1.01287 7.55336 1.07709L0.48418 8.73045C0.173945 9.0428 -0.000117128 9.46522 5.9134e-08 9.90545V17.4938C5.9134e-08 18.8745 1.1193 19.9938 2.5 19.9938H5.83332V14.9938C5.84891 12.7214 7.68355 10.8658 9.89867 10.8124C12.1879 10.7571 14.1492 12.6444 14.1667 14.9938Z" fill="#DE2B13" fill-opacity="0.8"/>
<path d="M10 12.4938C8.6193 12.4938 7.5 13.6131 7.5 14.9938V19.9938H12.5V14.9938C12.5 13.6131 11.3807 12.4938 10 12.4938Z" fill="#DE2B13" fill-opacity="0.8"/>
</svg>
