<svg width="598" height="137" viewBox="0 0 598 137" fill="none" xmlns="http://www.w3.org/2000/svg">
<g clip-path="url(#clip0_3710_10010)">
<path d="M49.0385 16.0332L0 44.4992V122.767L24.5193 137V115.65L49.0385 129.883L98.0771 101.417V44.4992L49.0385 16.0332ZM73.5578 87.184L49.0385 101.417L24.5193 87.184V58.718L49.0385 44.485L73.5578 58.718V87.184Z" fill="#94281A"/>
<path d="M432.15 101.418V44.5003L383.112 16.0343L358.593 30.2673V11.9473L334.073 26.1803V44.5003V101.432L383.112 129.898L432.15 101.432V101.418ZM407.631 87.1851L383.112 101.418L358.593 87.1851V58.719L383.112 44.486L407.631 58.719V87.1851Z" fill="#E9E9E9"/>
<path d="M561.754 10.5604V31.5527L543.646 42.0703V63.1054L579.877 42.0703V0L561.754 10.5604Z" fill="#94281A"/>
<path d="M579.877 63.0626V42.0703L598 31.5527V10.5176L561.769 31.5527V73.623L579.877 63.0626Z" fill="#B92A16"/>
<path d="M73.5578 58.7902V87.1848L49.0386 101.418V129.884L98.0771 101.418V44.5L73.5578 58.7902Z" fill="#850D07"/>
<path d="M301.821 44.5006V87.1854L277.302 101.418L252.783 87.1854V44.5006L228.264 30.2676V101.418L252.783 115.651L277.302 129.884L326.341 101.418V30.2676L301.821 44.5006Z" fill="#E9E9E9"/>
<path d="M488.921 101.417L464.402 87.184V58.718L488.921 72.951L513.441 58.718L537.96 44.4992L488.921 16.0332L439.883 44.4992V101.417L464.402 115.65L488.921 129.883L537.96 101.417L513.441 87.184L488.921 101.417Z" fill="#E9E9E9"/>
<path d="M24.5761 58.6894L49.0385 44.4992L73.5578 58.718L98.0771 44.485L49.0385 16.0332L0 44.4992L24.5761 58.6894Z" fill="#B22917"/>
<path d="M171.493 101.417L146.973 87.184V58.718L147.03 58.6894L171.493 44.4992L196.012 58.718L214.433 48.0289L220.531 44.4992L171.493 16.0332L122.454 44.4992V101.417L146.973 115.65L171.493 129.883L220.531 101.417L196.012 87.184L171.493 101.417Z" fill="#E9E9E9"/>
<path d="M488.921 101.417V129.883L537.96 101.417L513.441 87.1836L488.921 101.417Z" fill="#9C9C9C"/>
<path d="M488.928 16.0312L439.889 44.4973L488.928 72.9491L537.966 44.4973L488.928 16.0312Z" fill="#D5D5D5"/>
</g>
<defs>
<clipPath id="clip0_3710_10010">
<rect width="598" height="137" fill="white"/>
</clipPath>
</defs>
</svg>
