<svg width="52" height="52" viewBox="0 0 52 52" fill="none" xmlns="http://www.w3.org/2000/svg">
<g filter="url(#filter0_d_819_2997)">
<circle cx="26" cy="24" r="16" fill="white"/>
</g>
<path d="M25.9645 14L17.7502 18.706V31.6473L21.8574 34V30.4707L25.9645 32.8237L34.1788 28.1177V18.706L25.9645 14ZM30.0717 25.7646L25.9645 28.1176L21.857 25.7646V21.0595L25.9642 18.7065L30.0713 21.0595L30.0717 25.7646Z" fill="#BE0014"/>
<g style="mix-blend-mode:multiply">
<path d="M30.0858 21.0146V25.7299L25.9932 28.0928V32.819L34.1792 28.0928V18.6412L30.0858 21.0146Z" fill="#9D1D1A"/>
</g>
<g style="mix-blend-mode:screen">
<path d="M21.8664 21.0833L25.9644 18.7262L30.0715 21.089L34.1787 18.726L25.9643 14L17.75 18.7262L21.8664 21.0833Z" fill="#9D1D1A"/>
</g>
<defs>
<filter id="filter0_d_819_2997" x="0" y="0" width="52" height="52" filterUnits="userSpaceOnUse" color-interpolation-filters="sRGB">
<feFlood flood-opacity="0" result="BackgroundImageFix"/>
<feColorMatrix in="SourceAlpha" type="matrix" values="0 0 0 0 0 0 0 0 0 0 0 0 0 0 0 0 0 0 127 0" result="hardAlpha"/>
<feOffset dy="2"/>
<feGaussianBlur stdDeviation="5"/>
<feComposite in2="hardAlpha" operator="out"/>
<feColorMatrix type="matrix" values="0 0 0 0 0 0 0 0 0 0 0 0 0 0 0 0 0 0 0.1 0"/>
<feBlend mode="normal" in2="BackgroundImageFix" result="effect1_dropShadow_819_2997"/>
<feBlend mode="normal" in="SourceGraphic" in2="effect1_dropShadow_819_2997" result="shape"/>
</filter>
</defs>
</svg>
