<svg width="16" height="20" viewBox="0 0 16 20" fill="none" xmlns="http://www.w3.org/2000/svg">
<path d="M11.3333 1.66667H11.1908C10.8467 0.696667 9.92 0 8.83333 0H7.16667C6.08 0 5.15333 0.696667 4.80917 1.66667H4.66667C2.36917 1.66667 0.5 3.53583 0.5 5.83333V15.8333C0.5 18.1308 2.36917 20 4.66667 20H11.3333C13.6308 20 15.5 18.1308 15.5 15.8333V5.83333C15.5 3.53583 13.6308 1.66667 11.3333 1.66667ZM3.83333 14.1667C2.74333 14.1617 2.74333 12.505 3.83333 12.5C4.92333 12.505 4.92333 14.1617 3.83333 14.1667ZM4.38917 10C4.01833 10 3.66917 9.85583 3.4075 9.59333L2.5675 8.80083C2.23333 8.485 2.2175 7.9575 2.53333 7.6225C2.84917 7.2875 3.37667 7.2725 3.71167 7.58833L4.3875 8.22667L5.75417 6.90167C6.08417 6.58167 6.61167 6.58917 6.9325 6.92C7.2525 7.25 7.245 7.7775 6.91417 8.09833L5.3625 9.6025C5.11 9.85583 4.76083 10 4.39 10H4.38917ZM12.1667 14.1667H7.16667C6.07667 14.1617 6.0775 12.505 7.16667 12.5H12.1667C13.2567 12.505 13.2558 14.1617 12.1667 14.1667ZM12.1667 10H8.83333C7.74333 9.995 7.74417 8.33833 8.83333 8.33333H12.1667C13.2567 8.33833 13.2558 9.995 12.1667 10Z" fill="#DE2B13" fill-opacity="0.8"/>
</svg>
