<svg width="10" height="11" viewBox="0 0 10 11" fill="none" xmlns="http://www.w3.org/2000/svg">
<g id="icon / watch" clip-path="url(#clip0_2616_17185)">
<path id="Vector" d="M5 0.5C4.0111 0.5 3.0444 0.793245 2.22215 1.34265C1.39991 1.89206 0.759043 2.67295 0.380605 3.58658C0.00216643 4.50021 -0.0968503 5.50555 0.0960758 6.47545C0.289002 7.44536 0.765206 8.33627 1.46447 9.03553C2.16373 9.7348 3.05465 10.211 4.02455 10.4039C4.99446 10.5969 5.99979 10.4978 6.91342 10.1194C7.82705 9.74096 8.60794 9.1001 9.15735 8.27785C9.70676 7.45561 10 6.48891 10 5.5C9.99857 4.17436 9.47132 2.90342 8.53395 1.96605C7.59658 1.02868 6.32564 0.501434 5 0.5V0.5ZM5 9.66667C4.17591 9.66667 3.37033 9.4223 2.68513 8.96446C1.99992 8.50662 1.46587 7.85587 1.1505 7.09451C0.835139 6.33316 0.752625 5.49538 0.913397 4.68712C1.07417 3.87887 1.47101 3.13644 2.05372 2.55372C2.63644 1.971 3.37887 1.57417 4.18713 1.41339C4.99538 1.25262 5.83316 1.33514 6.59452 1.6505C7.35588 1.96587 8.00662 2.49992 8.46446 3.18512C8.9223 3.87033 9.16667 4.67591 9.16667 5.5C9.16546 6.6047 8.72608 7.6638 7.94494 8.44494C7.1638 9.22608 6.1047 9.66545 5 9.66667Z" fill="#D82828" fill-opacity="0.9"/>
<path id="Vector_2" d="M5.00002 3C4.88951 3 4.78353 3.0439 4.70539 3.12204C4.62725 3.20018 4.58335 3.30616 4.58335 3.41667V5.21875L3.17877 6.09875C3.08484 6.15742 3.01806 6.25101 2.99314 6.35893C2.96821 6.46684 2.98717 6.58023 3.04585 6.67416C3.10453 6.76809 3.19812 6.83487 3.30603 6.85979C3.41394 6.88472 3.52734 6.86576 3.62127 6.80708L5.22127 5.80708C5.28172 5.7692 5.33144 5.71644 5.36565 5.65384C5.39987 5.59125 5.41744 5.52091 5.41669 5.44958V3.41667C5.41669 3.30616 5.37279 3.20018 5.29465 3.12204C5.21651 3.0439 5.11053 3 5.00002 3Z" fill="#D82828" fill-opacity="0.9"/>
</g>
<defs>
<clipPath id="clip0_2616_17185">
<rect width="10" height="10" fill="white" transform="translate(0 0.5)"/>
</clipPath>
</defs>
</svg>
